Coordinates
version=1
nRows=7
nColumns=40
inDegrees=yes

Units are S.I. units (second, meters, Newtons, ...)
Angles are in degrees.

endheader
time	pelvis_tilt	pelvis_list	pelvis_rotation	pelvis_tx	pelvis_ty	pelvis_tz	hip_flexion_r	hip_adduction_r	hip_rotation_r	knee_angle_r	knee_angle_r_beta	ankle_angle_r	subtalar_angle_r	mtp_angle_r	hip_flexion_l	hip_adduction_l	hip_rotation_l	knee_angle_l	knee_angle_l_beta	ankle_angle_l	subtalar_angle_l	mtp_angle_l	lumbar_extension	lumbar_bending	lumbar_rotation	arm_flex_r	arm_add_r	arm_rot_r	elbow_flex_r	pro_sup_r	wrist_flex_r	wrist_dev_r	arm_flex_l	arm_add_l	arm_rot_l	elbow_flex_l	pro_sup_l	wrist_flex_l	wrist_dev_l
     55.75342857	     -4.49113118	     -4.97065931	      7.66350904	      1.09756984	      0.91980403	      0.45828084	      1.69886536	      2.67780165	    -15.29869048	     13.51896955	     13.51896955	     18.10197624	      0.09694994	     -2.72164882	     29.78803673	     -5.73138583	      0.84793201	     22.03174590	     22.03174590	      3.20819028	     -9.54574529	      3.01365238	     -9.86570754	      3.88514946	      3.25310566	     24.55395780	    -14.06771315	      4.50621496	     70.67960605	     44.63133703	      0.00000000	      0.00000000	     -0.27628856	    -10.03989084	    -12.46746737	     31.25017874	     47.11852554	      0.00000000	      0.00000000
     55.76685714	     -4.51981171	     -4.95618552	      7.42607328	      1.09925347	      0.91919741	      0.45596845	      1.30361146	      2.51741554	    -15.06101758	     13.66727200	     13.66727200	     18.30060800	      0.12437976	     -2.74782015	     29.33964318	     -5.65176103	      0.89516849	     22.50588396	     22.50588396	      3.13822093	     -9.71203753	      2.94498404	     -9.67648419	      3.71530212	      3.37269758	     23.91885010	    -13.48554596	      4.80989339	     70.53892928	     44.62474360	      0.00000000	      0.00000000	     -0.12422515	    -10.05970132	    -12.48857964	     31.31727983	     47.12114605	      0.00000000	      0.00000000
     55.78028571	     -4.50583029	     -4.91114338	      7.24284165	      1.10081288	      0.91886536	      0.45341163	      0.93741284	      2.29507691	    -14.84315716	     13.94477761	     13.94477761	     18.44943846	      0.07268050	     -2.75143410	     28.92428468	     -5.50897437	      0.98771969	     22.98784174	     22.98784174	      3.26091580	     -9.96034637	      2.79985490	     -9.58082343	      3.53303922	      3.40762050	     23.21846857	    -12.97532479	      5.13669836	     70.36064538	     44.61795706	      0.00000000	      0.00000000	      0.10074469	    -10.07989406	    -12.50510379	     31.42066158	     47.12469968	      0.00000000	      0.00000000
     55.79371429	     -4.57167016	     -4.80359775	      7.06474968	      1.10192079	      0.91856743	      0.45061251	      1.07765991	      1.88241415	    -14.48997642	     14.99915122	     14.99915122	     18.76193187	     -0.46047806	     -2.49497000	     28.71085912	     -5.22753277	      1.21525633	     23.53560489	     23.53560489	      3.34803843	    -10.67417064	      2.56175739	     -9.47572198	      3.28877378	      3.48246605	     22.59713627	    -12.81698961	      5.86257961	     69.98199755	     44.61323526	      0.00000000	      0.00000000	      0.40612009	    -10.08973769	    -12.62161033	     31.65581744	     47.13196401	      0.00000000	      0.00000000
     55.80714286	     -4.45120466	     -4.76413433	      6.98292787	      1.10317350	      0.91892787	      0.44760793	      0.78728380	      1.60486117	    -14.35990076	     15.57372104	     15.57372104	     18.73394463	     -0.64892700	     -2.45732699	     28.29098671	     -5.04673480	      1.34957524	     23.97277788	     23.97277788	      3.73153352	    -10.96417008	      2.34013552	     -9.56879657	      3.16445085	      3.37513634	     21.75403716	    -12.41640347	      6.24487338	     69.69998635	     44.60789241	      0.00000000	      0.00000000	      0.73486170	    -10.11352973	    -12.63373427	     31.80255970	     47.13578537	      0.00000000	      0.00000000
     55.82057143	     -4.54132906	     -4.64504298	      6.84157108	      1.10382109	      0.91902956	      0.44441968	      1.35180513	      1.06630407	    -13.93185829	     17.30754594	     17.30754594	     18.93997633	     -1.51488859	     -2.16197253	     28.14721969	     -4.71392959	      1.54540591	     24.42361785	     24.42361785	      4.10293647	    -11.70831521	      2.22296012	     -9.49842402	      2.94293117	      3.33102598	     21.18662420	    -12.55045329	      7.47050297	     68.97019952	     44.60648850	      0.00000000	      0.00000000	      1.13130275	    -10.10605597	    -12.73008052	     32.11755719	     47.12963311	      0.00000000	      0.00000000
     55.83400000	     -4.41705056	     -4.57642901	      6.73696361	      1.10455006	      0.91964288	      0.44107541	      1.63288687	      0.58326728	    -13.73776597	     18.90886159	     18.90886159	     18.84636723	     -2.02680383	     -2.36038464	     27.78133139	     -4.50342615	      1.56067333	     24.85797237	     24.85797237	      4.66222538	    -12.00028098	      2.00751236	     -9.70131492	      2.83283210	      3.29329819	     20.41846776	    -12.49346204	      7.95049269	     68.40389472	     44.61160975	      0.00000000	      0.00000000	      1.63787624	    -10.11455923	    -12.73520392	     32.41094139	     47.13015190	      0.00000000	      0.00000000
